<mxfile host="app.diagrams.net" agent="Mozilla/5.0 (Windows NT 10.0; Win64; x64) AppleWebKit/537.36 (KHTML, like Gecko) Chrome/131.0.0.0 Safari/537.36 OPR/116.0.0.0" version="26.0.15">
  <diagram name="Page-1" id="iNksYSp3KD2ghD7DZ825">
    <mxGraphModel dx="1686" dy="562" grid="1" gridSize="10" guides="1" tooltips="1" connect="1" arrows="1" fold="1" page="1" pageScale="1" pageWidth="850" pageHeight="1100" math="0" shadow="0">
      <root>
        <mxCell id="0" />
        <mxCell id="1" parent="0" />
        <mxCell id="R_ySHXZw1-JV_L2jw-Js-1" value="Device (AC)" style="rounded=1;whiteSpace=wrap;html=1;" parent="1" vertex="1">
          <mxGeometry x="210" y="220.56" width="120" height="60" as="geometry" />
        </mxCell>
        <mxCell id="R_ySHXZw1-JV_L2jw-Js-2" value="Device (TV)" style="rounded=1;whiteSpace=wrap;html=1;" parent="1" vertex="1">
          <mxGeometry x="-10" y="330" width="120" height="60" as="geometry" />
        </mxCell>
        <mxCell id="R_ySHXZw1-JV_L2jw-Js-3" value="Device (humidifier&lt;span style=&quot;background-color: transparent; color: light-dark(rgb(0, 0, 0), rgb(255, 255, 255));&quot;&gt;)&lt;/span&gt;" style="rounded=1;whiteSpace=wrap;html=1;" parent="1" vertex="1">
          <mxGeometry x="450" y="220" width="120" height="60" as="geometry" />
        </mxCell>
        <mxCell id="R_ySHXZw1-JV_L2jw-Js-17" style="edgeStyle=orthogonalEdgeStyle;rounded=0;orthogonalLoop=1;jettySize=auto;html=1;exitX=0;exitY=0.25;exitDx=0;exitDy=0;entryX=1;entryY=0.5;entryDx=0;entryDy=0;" parent="1" source="dgoQD4yRRUtl3kYk-ogs-1" target="R_ySHXZw1-JV_L2jw-Js-2" edge="1">
          <mxGeometry relative="1" as="geometry">
            <mxPoint x="225" y="400" as="sourcePoint" />
          </mxGeometry>
        </mxCell>
        <mxCell id="R_ySHXZw1-JV_L2jw-Js-18" style="edgeStyle=orthogonalEdgeStyle;rounded=0;orthogonalLoop=1;jettySize=auto;html=1;exitX=0.25;exitY=0;exitDx=0;exitDy=0;" parent="1" source="dgoQD4yRRUtl3kYk-ogs-1" target="R_ySHXZw1-JV_L2jw-Js-1" edge="1">
          <mxGeometry relative="1" as="geometry">
            <mxPoint x="295" y="340" as="sourcePoint" />
          </mxGeometry>
        </mxCell>
        <mxCell id="R_ySHXZw1-JV_L2jw-Js-19" style="edgeStyle=orthogonalEdgeStyle;rounded=0;orthogonalLoop=1;jettySize=auto;html=1;exitX=0.75;exitY=0;exitDx=0;exitDy=0;entryX=0.5;entryY=1;entryDx=0;entryDy=0;" parent="1" source="dgoQD4yRRUtl3kYk-ogs-1" target="R_ySHXZw1-JV_L2jw-Js-3" edge="1">
          <mxGeometry relative="1" as="geometry">
            <mxPoint x="390" y="329.44" as="sourcePoint" />
          </mxGeometry>
        </mxCell>
        <mxCell id="R_ySHXZw1-JV_L2jw-Js-23" style="edgeStyle=orthogonalEdgeStyle;rounded=0;orthogonalLoop=1;jettySize=auto;html=1;entryX=1;entryY=0.75;entryDx=0;entryDy=0;startArrow=classic;startFill=1;exitX=0;exitY=0.5;exitDx=0;exitDy=0;" parent="1" source="R_ySHXZw1-JV_L2jw-Js-9" target="R_ySHXZw1-JV_L2jw-Js-20" edge="1">
          <mxGeometry relative="1" as="geometry">
            <mxPoint x="290" y="630" as="sourcePoint" />
          </mxGeometry>
        </mxCell>
        <mxCell id="R_ySHXZw1-JV_L2jw-Js-9" value="Phone / UI" style="rounded=0;whiteSpace=wrap;html=1;" parent="1" vertex="1">
          <mxGeometry x="320" y="650" width="120" height="60" as="geometry" />
        </mxCell>
        <mxCell id="dgoQD4yRRUtl3kYk-ogs-14" style="edgeStyle=orthogonalEdgeStyle;rounded=0;orthogonalLoop=1;jettySize=auto;html=1;exitX=1;exitY=0.25;exitDx=0;exitDy=0;entryX=0;entryY=0.5;entryDx=0;entryDy=0;" edge="1" parent="1" source="R_ySHXZw1-JV_L2jw-Js-20" target="dgoQD4yRRUtl3kYk-ogs-4">
          <mxGeometry relative="1" as="geometry" />
        </mxCell>
        <mxCell id="R_ySHXZw1-JV_L2jw-Js-20" value="Server" style="swimlane;whiteSpace=wrap;html=1;" parent="1" vertex="1">
          <mxGeometry x="40" y="470" width="200" height="200" as="geometry" />
        </mxCell>
        <mxCell id="R_ySHXZw1-JV_L2jw-Js-21" value="DB" style="whiteSpace=wrap;html=1;" parent="R_ySHXZw1-JV_L2jw-Js-20" vertex="1">
          <mxGeometry x="25" y="55" width="60" height="20" as="geometry" />
        </mxCell>
        <mxCell id="dgoQD4yRRUtl3kYk-ogs-1" value="Switch" style="swimlane;whiteSpace=wrap;html=1;" vertex="1" parent="1">
          <mxGeometry x="310" y="390" width="200" height="200" as="geometry" />
        </mxCell>
        <mxCell id="dgoQD4yRRUtl3kYk-ogs-2" value="MCU (Arduino)" style="rounded=0;whiteSpace=wrap;html=1;" vertex="1" parent="dgoQD4yRRUtl3kYk-ogs-1">
          <mxGeometry x="115" y="105" width="70" height="30" as="geometry" />
        </mxCell>
        <mxCell id="dgoQD4yRRUtl3kYk-ogs-3" value="Infra-Red emitor" style="rounded=0;whiteSpace=wrap;html=1;" vertex="1" parent="dgoQD4yRRUtl3kYk-ogs-1">
          <mxGeometry x="120" y="45" width="70" height="30" as="geometry" />
        </mxCell>
        <mxCell id="dgoQD4yRRUtl3kYk-ogs-4" value="Wi-Fi module" style="rounded=0;whiteSpace=wrap;html=1;" vertex="1" parent="dgoQD4yRRUtl3kYk-ogs-1">
          <mxGeometry x="15" y="75" width="85" height="30" as="geometry" />
        </mxCell>
        <mxCell id="dgoQD4yRRUtl3kYk-ogs-5" value="Humidity / Temperature sensor" style="rounded=0;whiteSpace=wrap;html=1;" vertex="1" parent="dgoQD4yRRUtl3kYk-ogs-1">
          <mxGeometry x="15" y="150" width="125" height="40" as="geometry" />
        </mxCell>
      </root>
    </mxGraphModel>
  </diagram>
</mxfile>
